<svg id="visual" viewBox="0 0 960 540" width="960" height="540" xmlns="http://www.w3.org/2000/svg" xmlns:xlink="http://www.w3.org/1999/xlink" version="1.1"><rect x="0" y="0" width="960" height="540" fill="#ffffff"></rect><path d="M0 343L14.5 340.3C29 337.7 58 332.3 87.2 333C116.3 333.7 145.7 340.3 174.8 338.2C204 336 233 325 262 319C291 313 320 312 349 318.7C378 325.3 407 339.7 436.2 338.7C465.3 337.7 494.7 321.3 523.8 312.8C553 304.3 582 303.7 611 307.2C640 310.7 669 318.3 698 316.3C727 314.3 756 302.7 785.2 301.8C814.3 301 843.7 311 872.8 312.7C902 314.3 931 307.7 945.5 304.3L960 301L960 541L945.5 541C931 541 902 541 872.8 541C843.7 541 814.3 541 785.2 541C756 541 727 541 698 541C669 541 640 541 611 541C582 541 553 541 523.8 541C494.7 541 465.3 541 436.2 541C407 541 378 541 349 541C320 541 291 541 262 541C233 541 204 541 174.8 541C145.7 541 116.3 541 87.2 541C58 541 29 541 14.5 541L0 541Z" fill="#4a00e0"></path><path d="M0 360L14.5 363.3C29 366.7 58 373.3 87.2 374.7C116.3 376 145.7 372 174.8 366.3C204 360.7 233 353.3 262 352.5C291 351.7 320 357.3 349 359.7C378 362 407 361 436.2 357.5C465.3 354 494.7 348 523.8 349.3C553 350.7 582 359.3 611 365.5C640 371.7 669 375.3 698 379.2C727 383 756 387 785.2 387.8C814.3 388.7 843.7 386.3 872.8 385.5C902 384.7 931 385.3 945.5 385.7L960 386L960 541L945.5 541C931 541 902 541 872.8 541C843.7 541 814.3 541 785.2 541C756 541 727 541 698 541C669 541 640 541 611 541C582 541 553 541 523.8 541C494.7 541 465.3 541 436.2 541C407 541 378 541 349 541C320 541 291 541 262 541C233 541 204 541 174.8 541C145.7 541 116.3 541 87.2 541C58 541 29 541 14.5 541L0 541Z" fill="#600de0"></path><path d="M0 389L14.5 390.8C29 392.7 58 396.3 87.2 400C116.3 403.7 145.7 407.3 174.8 408.5C204 409.7 233 408.3 262 407.8C291 407.3 320 407.7 349 403.5C378 399.3 407 390.7 436.2 387.2C465.3 383.7 494.7 385.3 523.8 387.2C553 389 582 391 611 395.2C640 399.3 669 405.7 698 410.2C727 414.7 756 417.3 785.2 413C814.3 408.7 843.7 397.3 872.8 393.5C902 389.7 931 393.3 945.5 395.2L960 397L960 541L945.5 541C931 541 902 541 872.8 541C843.7 541 814.3 541 785.2 541C756 541 727 541 698 541C669 541 640 541 611 541C582 541 553 541 523.8 541C494.7 541 465.3 541 436.2 541C407 541 378 541 349 541C320 541 291 541 262 541C233 541 204 541 174.8 541C145.7 541 116.3 541 87.2 541C58 541 29 541 14.5 541L0 541Z" fill="#7119e1"></path><path d="M0 433L14.5 436.5C29 440 58 447 87.2 451.7C116.3 456.3 145.7 458.7 174.8 457.2C204 455.7 233 450.3 262 448.3C291 446.3 320 447.7 349 450C378 452.3 407 455.7 436.2 452.3C465.3 449 494.7 439 523.8 439.8C553 440.7 582 452.3 611 452.3C640 452.3 669 440.7 698 439.3C727 438 756 447 785.2 447.5C814.3 448 843.7 440 872.8 440.3C902 440.7 931 449.3 945.5 453.7L960 458L960 541L945.5 541C931 541 902 541 872.8 541C843.7 541 814.3 541 785.2 541C756 541 727 541 698 541C669 541 640 541 611 541C582 541 553 541 523.8 541C494.7 541 465.3 541 436.2 541C407 541 378 541 349 541C320 541 291 541 262 541C233 541 204 541 174.8 541C145.7 541 116.3 541 87.2 541C58 541 29 541 14.5 541L0 541Z" fill="#8023e1"></path><path d="M0 483L14.5 482C29 481 58 479 87.2 479.8C116.3 480.7 145.7 484.3 174.8 485.5C204 486.7 233 485.3 262 484.2C291 483 320 482 349 482.5C378 483 407 485 436.2 484.7C465.3 484.3 494.7 481.7 523.8 482.8C553 484 582 489 611 491.5C640 494 669 494 698 491.7C727 489.3 756 484.7 785.2 482.7C814.3 480.7 843.7 481.3 872.8 479.5C902 477.7 931 473.3 945.5 471.2L960 469L960 541L945.5 541C931 541 902 541 872.8 541C843.7 541 814.3 541 785.2 541C756 541 727 541 698 541C669 541 640 541 611 541C582 541 553 541 523.8 541C494.7 541 465.3 541 436.2 541C407 541 378 541 349 541C320 541 291 541 262 541C233 541 204 541 174.8 541C145.7 541 116.3 541 87.2 541C58 541 29 541 14.5 541L0 541Z" fill="#8e2de2"></path></svg>